<?xml version="1.0" standalone="no"?>
<!DOCTYPE svg PUBLIC "-//W3C//DTD SVG 20010904//EN"
 "http://www.w3.org/TR/2001/REC-SVG-20010904/DTD/svg10.dtd">
<svg version="1.0" xmlns="http://www.w3.org/2000/svg"
 width="300.000000pt" height="150.000000pt" viewBox="0 0 300.000000 150.000000"
 preserveAspectRatio="xMidYMid meet">

<g transform="translate(0.000000,150.000000) scale(0.100000,-0.100000)"
fill="#000000" stroke="none">
<path d="M915 1280 c-11 -34 12 -50 71 -50 41 0 54 4 54 15 0 12 14 15 63 15
l62 0 0 -118 c0 -161 27 -209 128 -231 61 -14 380 -14 429 -1 44 13 94 66 107
117 5 21 9 82 8 136 l-2 97 61 0 c46 0 63 -4 68 -15 4 -11 21 -15 60 -15 51 0
56 2 62 24 3 14 3 30 -1 35 -4 8 -189 11 -585 11 -574 0 -579 0 -585 -20z
m881 -36 c-3 -9 -6 -40 -6 -69 l0 -54 -292 2 -293 2 -3 68 -3 67 302 0 c270 0
301 -2 295 -16z m-6 -167 c0 -4 0 -18 0 -32 0 -15 -14 -40 -32 -61 l-33 -35
-219 1 c-235 0 -248 3 -280 53 -27 42 -29 66 -7 75 26 9 571 9 571 -1z"/>
<path d="M689 523 c-2 -77 -7 -121 -13 -132 -9 -14 -41 -14 -66 1 -22 14 -35
6 -26 -17 8 -21 52 -36 82 -29 42 11 55 43 52 125 -2 47 -7 74 -15 77 -8 2
-13 -7 -14 -25z"/>
<path d="M841 488 c-60 -134 -65 -174 -18 -130 33 31 99 30 120 0 11 -16 18
-20 26 -13 10 10 1 36 -66 193 -12 28 -35 9 -62 -50z m59 -27 c16 -32 12 -41
-21 -41 -21 0 -29 4 -25 13 3 6 9 20 12 30 8 22 21 22 34 -2z"/>
<path d="M1062 542 c-20 -13 -12 -197 8 -197 8 0 16 9 18 20 7 36 20 38 53 6
17 -17 36 -31 40 -31 15 0 10 37 -6 50 -14 12 -13 15 5 32 26 25 27 79 0 103
-21 19 -98 31 -118 17z m96 -66 c4 -31 -10 -46 -45 -46 -20 0 -23 5 -23 41 0
39 1 40 33 37 27 -3 33 -7 35 -32z"/>
<path d="M1275 538 c-3 -8 -5 -55 -3 -104 2 -71 6 -89 18 -89 12 0 15 18 15
99 0 71 -4 101 -12 103 -7 3 -15 -2 -18 -9z"/>
<path d="M1618 534 c-16 -8 -28 -16 -28 -18 0 -2 -6 -19 -14 -38 -13 -30 -13
-38 4 -75 40 -91 175 -75 193 22 15 87 -77 152 -155 109z m102 -44 c24 -24 26
-57 4 -88 -33 -47 -124 -14 -124 45 0 32 34 63 70 63 17 0 39 -9 50 -20z"/>
<path d="M1835 539 c-9 -13 12 -29 38 -29 15 0 17 -11 17 -79 0 -76 10 -106
26 -79 4 6 8 43 8 82 1 66 2 70 26 76 14 3 25 12 25 20 0 19 -129 27 -140 9z"/>
<path d="M2062 533 c2 -11 14 -19 31 -21 l27 -3 0 -85 c0 -64 3 -85 13 -82 7
3 14 33 17 83 5 74 7 80 30 85 14 3 25 12 25 20 0 12 -17 16 -73 18 -66 3 -73
1 -70 -15z"/>
<path d="M2292 538 c-18 -18 -16 -172 2 -187 8 -7 37 -11 68 -9 41 2 54 7 56
21 3 14 -4 17 -48 17 -48 0 -51 2 -48 23 2 18 10 23 41 25 53 5 51 32 -3 32
-36 0 -40 3 -40 24 0 23 5 25 48 28 34 2 47 7 47 18 0 20 -104 27 -123 8z"/>
<path d="M1380 446 c0 -9 12 -16 28 -18 44 -5 82 3 82 18 0 10 -15 14 -55 14
-41 0 -55 -4 -55 -14z"/>
</g>
</svg>
